<?xml version="1.0" encoding="UTF-8" standalone="no"?>
<!DOCTYPE svg PUBLIC "-//W3C//DTD SVG 1.1//EN" "http://www.w3.org/Graphics/SVG/1.1/DTD/svg11.dtd">
<svg width="100%" height="100%" viewBox="0 0 150 117" version="1.1" xmlns="http://www.w3.org/2000/svg" xmlns:xlink="http://www.w3.org/1999/xlink" xml:space="preserve" xmlns:serif="http://www.serif.com/" style="fill-rule:evenodd;clip-rule:evenodd;stroke-linecap:round;stroke-linejoin:round;stroke-miterlimit:1.5;">
    <g transform="matrix(1.15143,0,0,1.02251,-494.236,-266.774)">
        <g transform="matrix(0.878526,0,0,0.836701,60.8469,42.6047)">
            <path d="M440.236,260.901L429.236,260.901L429.236,373.643L440.236,355.536L440.236,260.901Z" style="fill:rgb(217,217,217);"/>
        </g>
        <g transform="matrix(1.0935,0,0,1.43333,-40.1337,-113.057)">
            <path d="M548.37,260.901L429.236,260.901L429.236,269.146L541.544,269.146L548.37,260.901Z" style="fill:rgb(217,217,217);"/>
        </g>
        <g transform="matrix(1.0093,0,0,1.05744,-3.99058,-14.9851)">
            <path d="M440.236,260.901L429.236,260.901L429.236,368.832L440.236,358.825L440.236,260.901Z" style="fill:rgb(217,217,217);"/>
        </g>
    </g>
    <g transform="matrix(1.03511,0,0,1.0351,-444.308,-270.059)">
        <g transform="matrix(0.797891,0,0,0.765159,94.714,61.2702)">
            <path d="M440.236,260.901L429.236,260.901L429.236,373.643L440.236,355.536L440.236,260.901Z" style="fill:rgb(114,114,114);"/>
        </g>
        <path d="M574.148,260.901L429.236,260.901L429.236,269.146L562.876,269.146L574.148,260.901Z" style="fill:rgb(92,92,92);"/>
        <path d="M574.148,260.901L429.236,260.901L429.236,269.146L562.876,269.146L574.148,260.901Z" style="fill:rgb(92,92,92);"/>
        <g transform="matrix(0.797891,0,0,1,86.7525,0)">
            <path d="M440.236,260.901L429.236,260.901L429.236,373.643L440.236,358.825L440.236,260.901Z" style="fill:rgb(92,92,92);"/>
        </g>
        <g transform="matrix(1,0,0,1,4.3884,4.12249)">
            <ellipse cx="439.198" cy="270.672" rx="9.961" ry="9.771" style="fill:url(#_Radial1);stroke:url(#_Radial2);stroke-width:1.93px;"/>
        </g>
    </g>
    <defs>
        <radialGradient id="_Radial1" cx="0" cy="0" r="1" gradientUnits="userSpaceOnUse" gradientTransform="matrix(9.96148,0,0,9.77116,439.198,270.672)"><stop offset="0" style="stop-color:white;stop-opacity:1"/><stop offset="0.18" style="stop-color:rgb(146,157,255);stop-opacity:1"/><stop offset="0.39" style="stop-color:rgb(43,64,255);stop-opacity:1"/><stop offset="1" style="stop-color:rgb(0,25,255);stop-opacity:1"/></radialGradient>
        <radialGradient id="_Radial2" cx="0" cy="0" r="1" gradientUnits="userSpaceOnUse" gradientTransform="matrix(19.923,0,0,19.9231,429.236,270.672)"><stop offset="0" style="stop-color:rgb(120,117,76);stop-opacity:1"/><stop offset="1" style="stop-color:rgb(204,197,33);stop-opacity:1"/></radialGradient>
    </defs>
</svg>
